<svg xmlns="http://www.w3.org/2000/svg" viewBox="0 0 400 330" role="img" aria-label="Um cachorro e um gato sorrindo">
<ellipse cx="135" cy="305" rx="75" ry="55" fill="#E9B98A"/>
<ellipse cx="278" cy="310" rx="62" ry="50" fill="#B9B9C2"/>
<path d="M232 130l-6-62 46 30zM322 130l8-62-48 30z" fill="#B9B9C2"/>
<path d="M240 118l-3-32 24 16zM316 118l4-32-24 16z" fill="#F7B6CF"/>
<circle cx="278" cy="178" r="68" fill="#B9B9C2"/>
<circle cx="256" cy="170" r="8" fill="#2A0E3D"/><circle cx="300" cy="170" r="8" fill="#2A0E3D"/>
<circle cx="259" cy="167" r="2.5" fill="#fff"/><circle cx="303" cy="167" r="2.5" fill="#fff"/>
<path d="M270 188h16l-8 9z" fill="#F7B6CF"/>
<path d="M278 197q-8 10-18 6M278 197q8 10 18 6" fill="none" stroke="#2A0E3D" stroke-width="3" stroke-linecap="round"/>
<path d="M240 190l-30-6M240 200l-30 6M316 190l30-6M316 200l30 6" stroke="#fff" stroke-width="3" stroke-linecap="round"/>
<ellipse cx="62" cy="170" rx="30" ry="58" fill="#67228A" transform="rotate(12 62 170)"/>
<ellipse cx="208" cy="170" rx="30" ry="58" fill="#67228A" transform="rotate(-12 208 170)"/>
<circle cx="135" cy="165" r="80" fill="#E9B98A"/>
<ellipse cx="135" cy="198" rx="40" ry="30" fill="#F8E3CC"/>
<circle cx="105" cy="150" r="9" fill="#2A0E3D"/><circle cx="165" cy="150" r="9" fill="#2A0E3D"/>
<circle cx="108" cy="147" r="3" fill="#fff"/><circle cx="168" cy="147" r="3" fill="#fff"/>
<ellipse cx="135" cy="183" rx="14" ry="10" fill="#2A0E3D"/>
<path d="M135 193v8q-12 12-24 2M135 201q12 12 24 2" fill="none" stroke="#2A0E3D" stroke-width="3.5" stroke-linecap="round"/>
<path d="M124 206q11 26 22 0z" fill="#FF6F91"/>
<path d="M85 238q50 22 100 0v16q-50 22-100 0z" fill="#06DCDC"/>
<circle cx="135" cy="262" r="9" fill="#FFD23F"/>
</svg>
